<mxfile host="Electron" modified="2023-08-28T19:58:52.917Z" agent="Mozilla/5.0 (Macintosh; Intel Mac OS X 10_15_7) AppleWebKit/537.36 (KHTML, like Gecko) draw.io/21.6.5 Chrome/114.0.5735.243 Electron/25.3.1 Safari/537.36" etag="c2uBIR4TtUdQd6C_xmsf" version="21.6.5" type="device">
  <diagram id="qoKBPkumv4y7Siwdmq2F" name="Страница 1">
    <mxGraphModel dx="-1164" dy="884" grid="1" gridSize="10" guides="1" tooltips="1" connect="1" arrows="1" fold="1" page="1" pageScale="1" pageWidth="827" pageHeight="1169" math="0" shadow="0">
      <root>
        <mxCell id="0" />
        <mxCell id="1" parent="0" />
        <mxCell id="4WcuhHbc12WLv7kI3l_H-332" value="user" style="shape=table;startSize=30;container=1;collapsible=1;childLayout=tableLayout;fixedRows=1;rowLines=0;fontStyle=1;align=center;resizeLast=1;html=1;fillColor=#ffe6cc;shadow=0;sketch=1;curveFitting=1;jiggle=2;rounded=1;strokeColor=#d79b00;" vertex="1" parent="1">
          <mxGeometry x="3370" y="470" width="180" height="410" as="geometry">
            <mxRectangle x="1241" y="130" width="70" height="30" as="alternateBounds" />
          </mxGeometry>
        </mxCell>
        <mxCell id="4WcuhHbc12WLv7kI3l_H-333" value="" style="shape=tableRow;horizontal=0;startSize=0;swimlaneHead=0;swimlaneBody=0;fillColor=none;collapsible=0;dropTarget=0;points=[[0,0.5],[1,0.5]];portConstraint=eastwest;top=0;left=0;right=0;bottom=1;" vertex="1" parent="4WcuhHbc12WLv7kI3l_H-332">
          <mxGeometry y="30" width="180" height="80" as="geometry" />
        </mxCell>
        <mxCell id="4WcuhHbc12WLv7kI3l_H-334" value="PK" style="shape=partialRectangle;connectable=0;fillColor=none;top=0;left=0;bottom=0;right=0;fontStyle=1;overflow=hidden;whiteSpace=wrap;html=1;" vertex="1" parent="4WcuhHbc12WLv7kI3l_H-333">
          <mxGeometry width="30" height="80" as="geometry">
            <mxRectangle width="30" height="80" as="alternateBounds" />
          </mxGeometry>
        </mxCell>
        <mxCell id="4WcuhHbc12WLv7kI3l_H-335" value="id" style="shape=partialRectangle;connectable=0;fillColor=none;top=0;left=0;bottom=0;right=0;align=left;spacingLeft=6;fontStyle=5;overflow=hidden;whiteSpace=wrap;html=1;" vertex="1" parent="4WcuhHbc12WLv7kI3l_H-333">
          <mxGeometry x="30" width="150" height="80" as="geometry">
            <mxRectangle width="150" height="80" as="alternateBounds" />
          </mxGeometry>
        </mxCell>
        <mxCell id="4WcuhHbc12WLv7kI3l_H-336" value="" style="shape=tableRow;horizontal=0;startSize=0;swimlaneHead=0;swimlaneBody=0;fillColor=none;collapsible=0;dropTarget=0;points=[[0,0.5],[1,0.5]];portConstraint=eastwest;top=0;left=0;right=0;bottom=0;" vertex="1" parent="4WcuhHbc12WLv7kI3l_H-332">
          <mxGeometry y="110" width="180" height="30" as="geometry" />
        </mxCell>
        <mxCell id="4WcuhHbc12WLv7kI3l_H-337" value="" style="shape=partialRectangle;connectable=0;fillColor=none;top=0;left=0;bottom=0;right=0;editable=1;overflow=hidden;whiteSpace=wrap;html=1;" vertex="1" parent="4WcuhHbc12WLv7kI3l_H-336">
          <mxGeometry width="30" height="30" as="geometry">
            <mxRectangle width="30" height="30" as="alternateBounds" />
          </mxGeometry>
        </mxCell>
        <mxCell id="4WcuhHbc12WLv7kI3l_H-338" value="first_name(string)" style="shape=partialRectangle;connectable=0;fillColor=none;top=0;left=0;bottom=0;right=0;align=left;spacingLeft=6;overflow=hidden;whiteSpace=wrap;html=1;" vertex="1" parent="4WcuhHbc12WLv7kI3l_H-336">
          <mxGeometry x="30" width="150" height="30" as="geometry">
            <mxRectangle width="150" height="30" as="alternateBounds" />
          </mxGeometry>
        </mxCell>
        <mxCell id="4WcuhHbc12WLv7kI3l_H-339" value="" style="shape=tableRow;horizontal=0;startSize=0;swimlaneHead=0;swimlaneBody=0;fillColor=none;collapsible=0;dropTarget=0;points=[[0,0.5],[1,0.5]];portConstraint=eastwest;top=0;left=0;right=0;bottom=0;" vertex="1" parent="4WcuhHbc12WLv7kI3l_H-332">
          <mxGeometry y="140" width="180" height="30" as="geometry" />
        </mxCell>
        <mxCell id="4WcuhHbc12WLv7kI3l_H-340" value="" style="shape=partialRectangle;connectable=0;fillColor=none;top=0;left=0;bottom=0;right=0;editable=1;overflow=hidden;whiteSpace=wrap;html=1;" vertex="1" parent="4WcuhHbc12WLv7kI3l_H-339">
          <mxGeometry width="30" height="30" as="geometry">
            <mxRectangle width="30" height="30" as="alternateBounds" />
          </mxGeometry>
        </mxCell>
        <mxCell id="4WcuhHbc12WLv7kI3l_H-341" value="second_name(string)" style="shape=partialRectangle;connectable=0;fillColor=none;top=0;left=0;bottom=0;right=0;align=left;spacingLeft=6;overflow=hidden;whiteSpace=wrap;html=1;" vertex="1" parent="4WcuhHbc12WLv7kI3l_H-339">
          <mxGeometry x="30" width="150" height="30" as="geometry">
            <mxRectangle width="150" height="30" as="alternateBounds" />
          </mxGeometry>
        </mxCell>
        <mxCell id="4WcuhHbc12WLv7kI3l_H-624" value="" style="shape=tableRow;horizontal=0;startSize=0;swimlaneHead=0;swimlaneBody=0;fillColor=none;collapsible=0;dropTarget=0;points=[[0,0.5],[1,0.5]];portConstraint=eastwest;top=0;left=0;right=0;bottom=0;" vertex="1" parent="4WcuhHbc12WLv7kI3l_H-332">
          <mxGeometry y="170" width="180" height="30" as="geometry" />
        </mxCell>
        <mxCell id="4WcuhHbc12WLv7kI3l_H-625" value="" style="shape=partialRectangle;connectable=0;fillColor=none;top=0;left=0;bottom=0;right=0;editable=1;overflow=hidden;whiteSpace=wrap;html=1;" vertex="1" parent="4WcuhHbc12WLv7kI3l_H-624">
          <mxGeometry width="30" height="30" as="geometry">
            <mxRectangle width="30" height="30" as="alternateBounds" />
          </mxGeometry>
        </mxCell>
        <mxCell id="4WcuhHbc12WLv7kI3l_H-626" value="email(string)" style="shape=partialRectangle;connectable=0;fillColor=none;top=0;left=0;bottom=0;right=0;align=left;spacingLeft=6;overflow=hidden;whiteSpace=wrap;html=1;" vertex="1" parent="4WcuhHbc12WLv7kI3l_H-624">
          <mxGeometry x="30" width="150" height="30" as="geometry">
            <mxRectangle width="150" height="30" as="alternateBounds" />
          </mxGeometry>
        </mxCell>
        <mxCell id="4WcuhHbc12WLv7kI3l_H-627" value="" style="shape=tableRow;horizontal=0;startSize=0;swimlaneHead=0;swimlaneBody=0;fillColor=none;collapsible=0;dropTarget=0;points=[[0,0.5],[1,0.5]];portConstraint=eastwest;top=0;left=0;right=0;bottom=0;" vertex="1" parent="4WcuhHbc12WLv7kI3l_H-332">
          <mxGeometry y="200" width="180" height="30" as="geometry" />
        </mxCell>
        <mxCell id="4WcuhHbc12WLv7kI3l_H-628" value="" style="shape=partialRectangle;connectable=0;fillColor=none;top=0;left=0;bottom=0;right=0;editable=1;overflow=hidden;whiteSpace=wrap;html=1;" vertex="1" parent="4WcuhHbc12WLv7kI3l_H-627">
          <mxGeometry width="30" height="30" as="geometry">
            <mxRectangle width="30" height="30" as="alternateBounds" />
          </mxGeometry>
        </mxCell>
        <mxCell id="4WcuhHbc12WLv7kI3l_H-629" value="password(string)" style="shape=partialRectangle;connectable=0;fillColor=none;top=0;left=0;bottom=0;right=0;align=left;spacingLeft=6;overflow=hidden;whiteSpace=wrap;html=1;" vertex="1" parent="4WcuhHbc12WLv7kI3l_H-627">
          <mxGeometry x="30" width="150" height="30" as="geometry">
            <mxRectangle width="150" height="30" as="alternateBounds" />
          </mxGeometry>
        </mxCell>
        <mxCell id="4WcuhHbc12WLv7kI3l_H-621" value="" style="shape=tableRow;horizontal=0;startSize=0;swimlaneHead=0;swimlaneBody=0;fillColor=none;collapsible=0;dropTarget=0;points=[[0,0.5],[1,0.5]];portConstraint=eastwest;top=0;left=0;right=0;bottom=0;" vertex="1" parent="4WcuhHbc12WLv7kI3l_H-332">
          <mxGeometry y="230" width="180" height="30" as="geometry" />
        </mxCell>
        <mxCell id="4WcuhHbc12WLv7kI3l_H-622" value="" style="shape=partialRectangle;connectable=0;fillColor=none;top=0;left=0;bottom=0;right=0;editable=1;overflow=hidden;whiteSpace=wrap;html=1;" vertex="1" parent="4WcuhHbc12WLv7kI3l_H-621">
          <mxGeometry width="30" height="30" as="geometry">
            <mxRectangle width="30" height="30" as="alternateBounds" />
          </mxGeometry>
        </mxCell>
        <mxCell id="4WcuhHbc12WLv7kI3l_H-623" value="phone(string)" style="shape=partialRectangle;connectable=0;fillColor=none;top=0;left=0;bottom=0;right=0;align=left;spacingLeft=6;overflow=hidden;whiteSpace=wrap;html=1;" vertex="1" parent="4WcuhHbc12WLv7kI3l_H-621">
          <mxGeometry x="30" width="150" height="30" as="geometry">
            <mxRectangle width="150" height="30" as="alternateBounds" />
          </mxGeometry>
        </mxCell>
        <mxCell id="4WcuhHbc12WLv7kI3l_H-345" value="" style="shape=tableRow;horizontal=0;startSize=0;swimlaneHead=0;swimlaneBody=0;fillColor=none;collapsible=0;dropTarget=0;points=[[0,0.5],[1,0.5]];portConstraint=eastwest;top=0;left=0;right=0;bottom=0;" vertex="1" parent="4WcuhHbc12WLv7kI3l_H-332">
          <mxGeometry y="260" width="180" height="30" as="geometry" />
        </mxCell>
        <mxCell id="4WcuhHbc12WLv7kI3l_H-346" value="" style="shape=partialRectangle;connectable=0;fillColor=none;top=0;left=0;bottom=0;right=0;editable=1;overflow=hidden;whiteSpace=wrap;html=1;" vertex="1" parent="4WcuhHbc12WLv7kI3l_H-345">
          <mxGeometry width="30" height="30" as="geometry">
            <mxRectangle width="30" height="30" as="alternateBounds" />
          </mxGeometry>
        </mxCell>
        <mxCell id="4WcuhHbc12WLv7kI3l_H-347" value="avatar_picture(string)" style="shape=partialRectangle;connectable=0;fillColor=none;top=0;left=0;bottom=0;right=0;align=left;spacingLeft=6;overflow=hidden;whiteSpace=wrap;html=1;" vertex="1" parent="4WcuhHbc12WLv7kI3l_H-345">
          <mxGeometry x="30" width="150" height="30" as="geometry">
            <mxRectangle width="150" height="30" as="alternateBounds" />
          </mxGeometry>
        </mxCell>
        <mxCell id="4WcuhHbc12WLv7kI3l_H-612" value="" style="shape=tableRow;horizontal=0;startSize=0;swimlaneHead=0;swimlaneBody=0;fillColor=none;collapsible=0;dropTarget=0;points=[[0,0.5],[1,0.5]];portConstraint=eastwest;top=0;left=0;right=0;bottom=0;" vertex="1" parent="4WcuhHbc12WLv7kI3l_H-332">
          <mxGeometry y="290" width="180" height="30" as="geometry" />
        </mxCell>
        <mxCell id="4WcuhHbc12WLv7kI3l_H-613" value="" style="shape=partialRectangle;connectable=0;fillColor=none;top=0;left=0;bottom=0;right=0;editable=1;overflow=hidden;whiteSpace=wrap;html=1;" vertex="1" parent="4WcuhHbc12WLv7kI3l_H-612">
          <mxGeometry width="30" height="30" as="geometry">
            <mxRectangle width="30" height="30" as="alternateBounds" />
          </mxGeometry>
        </mxCell>
        <mxCell id="4WcuhHbc12WLv7kI3l_H-614" value="description(string)" style="shape=partialRectangle;connectable=0;fillColor=none;top=0;left=0;bottom=0;right=0;align=left;spacingLeft=6;overflow=hidden;whiteSpace=wrap;html=1;" vertex="1" parent="4WcuhHbc12WLv7kI3l_H-612">
          <mxGeometry x="30" width="150" height="30" as="geometry">
            <mxRectangle width="150" height="30" as="alternateBounds" />
          </mxGeometry>
        </mxCell>
        <mxCell id="4WcuhHbc12WLv7kI3l_H-615" value="" style="shape=tableRow;horizontal=0;startSize=0;swimlaneHead=0;swimlaneBody=0;fillColor=none;collapsible=0;dropTarget=0;points=[[0,0.5],[1,0.5]];portConstraint=eastwest;top=0;left=0;right=0;bottom=0;" vertex="1" parent="4WcuhHbc12WLv7kI3l_H-332">
          <mxGeometry y="320" width="180" height="30" as="geometry" />
        </mxCell>
        <mxCell id="4WcuhHbc12WLv7kI3l_H-616" value="" style="shape=partialRectangle;connectable=0;fillColor=none;top=0;left=0;bottom=0;right=0;editable=1;overflow=hidden;whiteSpace=wrap;html=1;" vertex="1" parent="4WcuhHbc12WLv7kI3l_H-615">
          <mxGeometry width="30" height="30" as="geometry">
            <mxRectangle width="30" height="30" as="alternateBounds" />
          </mxGeometry>
        </mxCell>
        <mxCell id="4WcuhHbc12WLv7kI3l_H-617" value="is_visible_on_map(int)" style="shape=partialRectangle;connectable=0;fillColor=none;top=0;left=0;bottom=0;right=0;align=left;spacingLeft=6;overflow=hidden;whiteSpace=wrap;html=1;" vertex="1" parent="4WcuhHbc12WLv7kI3l_H-615">
          <mxGeometry x="30" width="150" height="30" as="geometry">
            <mxRectangle width="150" height="30" as="alternateBounds" />
          </mxGeometry>
        </mxCell>
        <mxCell id="4WcuhHbc12WLv7kI3l_H-633" value="" style="shape=tableRow;horizontal=0;startSize=0;swimlaneHead=0;swimlaneBody=0;fillColor=none;collapsible=0;dropTarget=0;points=[[0,0.5],[1,0.5]];portConstraint=eastwest;top=0;left=0;right=0;bottom=0;" vertex="1" parent="4WcuhHbc12WLv7kI3l_H-332">
          <mxGeometry y="350" width="180" height="30" as="geometry" />
        </mxCell>
        <mxCell id="4WcuhHbc12WLv7kI3l_H-634" value="" style="shape=partialRectangle;connectable=0;fillColor=none;top=0;left=0;bottom=0;right=0;editable=1;overflow=hidden;whiteSpace=wrap;html=1;" vertex="1" parent="4WcuhHbc12WLv7kI3l_H-633">
          <mxGeometry width="30" height="30" as="geometry">
            <mxRectangle width="30" height="30" as="alternateBounds" />
          </mxGeometry>
        </mxCell>
        <mxCell id="4WcuhHbc12WLv7kI3l_H-635" value="location(string)" style="shape=partialRectangle;connectable=0;fillColor=none;top=0;left=0;bottom=0;right=0;align=left;spacingLeft=6;overflow=hidden;whiteSpace=wrap;html=1;" vertex="1" parent="4WcuhHbc12WLv7kI3l_H-633">
          <mxGeometry x="30" width="150" height="30" as="geometry">
            <mxRectangle width="150" height="30" as="alternateBounds" />
          </mxGeometry>
        </mxCell>
        <mxCell id="4WcuhHbc12WLv7kI3l_H-618" value="" style="shape=tableRow;horizontal=0;startSize=0;swimlaneHead=0;swimlaneBody=0;fillColor=none;collapsible=0;dropTarget=0;points=[[0,0.5],[1,0.5]];portConstraint=eastwest;top=0;left=0;right=0;bottom=0;" vertex="1" parent="4WcuhHbc12WLv7kI3l_H-332">
          <mxGeometry y="380" width="180" height="30" as="geometry" />
        </mxCell>
        <mxCell id="4WcuhHbc12WLv7kI3l_H-619" value="" style="shape=partialRectangle;connectable=0;fillColor=none;top=0;left=0;bottom=0;right=0;editable=1;overflow=hidden;whiteSpace=wrap;html=1;" vertex="1" parent="4WcuhHbc12WLv7kI3l_H-618">
          <mxGeometry width="30" height="30" as="geometry">
            <mxRectangle width="30" height="30" as="alternateBounds" />
          </mxGeometry>
        </mxCell>
        <mxCell id="4WcuhHbc12WLv7kI3l_H-620" value="type_of_search(int)" style="shape=partialRectangle;connectable=0;fillColor=none;top=0;left=0;bottom=0;right=0;align=left;spacingLeft=6;overflow=hidden;whiteSpace=wrap;html=1;" vertex="1" parent="4WcuhHbc12WLv7kI3l_H-618">
          <mxGeometry x="30" width="150" height="30" as="geometry">
            <mxRectangle width="150" height="30" as="alternateBounds" />
          </mxGeometry>
        </mxCell>
        <mxCell id="4WcuhHbc12WLv7kI3l_H-364" value="event" style="shape=table;startSize=30;container=1;collapsible=1;childLayout=tableLayout;fixedRows=1;rowLines=0;fontStyle=1;align=center;resizeLast=1;html=1;fillColor=#dae8fc;shadow=0;sketch=1;curveFitting=1;jiggle=2;rounded=1;strokeColor=#6c8ebf;" vertex="1" parent="1">
          <mxGeometry x="3830" y="475" width="200" height="345" as="geometry">
            <mxRectangle x="1241" y="130" width="70" height="30" as="alternateBounds" />
          </mxGeometry>
        </mxCell>
        <mxCell id="4WcuhHbc12WLv7kI3l_H-365" value="" style="shape=tableRow;horizontal=0;startSize=0;swimlaneHead=0;swimlaneBody=0;fillColor=none;collapsible=0;dropTarget=0;points=[[0,0.5],[1,0.5]];portConstraint=eastwest;top=0;left=0;right=0;bottom=1;" vertex="1" parent="4WcuhHbc12WLv7kI3l_H-364">
          <mxGeometry y="30" width="200" height="75" as="geometry" />
        </mxCell>
        <mxCell id="4WcuhHbc12WLv7kI3l_H-366" value="PK" style="shape=partialRectangle;connectable=0;fillColor=none;top=0;left=0;bottom=0;right=0;fontStyle=1;overflow=hidden;whiteSpace=wrap;html=1;" vertex="1" parent="4WcuhHbc12WLv7kI3l_H-365">
          <mxGeometry width="30" height="75" as="geometry">
            <mxRectangle width="30" height="75" as="alternateBounds" />
          </mxGeometry>
        </mxCell>
        <mxCell id="4WcuhHbc12WLv7kI3l_H-367" value="id" style="shape=partialRectangle;connectable=0;fillColor=none;top=0;left=0;bottom=0;right=0;align=left;spacingLeft=6;fontStyle=5;overflow=hidden;whiteSpace=wrap;html=1;" vertex="1" parent="4WcuhHbc12WLv7kI3l_H-365">
          <mxGeometry x="30" width="170" height="75" as="geometry">
            <mxRectangle width="170" height="75" as="alternateBounds" />
          </mxGeometry>
        </mxCell>
        <mxCell id="4WcuhHbc12WLv7kI3l_H-368" value="" style="shape=tableRow;horizontal=0;startSize=0;swimlaneHead=0;swimlaneBody=0;fillColor=none;collapsible=0;dropTarget=0;points=[[0,0.5],[1,0.5]];portConstraint=eastwest;top=0;left=0;right=0;bottom=0;" vertex="1" parent="4WcuhHbc12WLv7kI3l_H-364">
          <mxGeometry y="105" width="200" height="30" as="geometry" />
        </mxCell>
        <mxCell id="4WcuhHbc12WLv7kI3l_H-369" value="" style="shape=partialRectangle;connectable=0;fillColor=none;top=0;left=0;bottom=0;right=0;editable=1;overflow=hidden;whiteSpace=wrap;html=1;" vertex="1" parent="4WcuhHbc12WLv7kI3l_H-368">
          <mxGeometry width="30" height="30" as="geometry">
            <mxRectangle width="30" height="30" as="alternateBounds" />
          </mxGeometry>
        </mxCell>
        <mxCell id="4WcuhHbc12WLv7kI3l_H-370" value="organizer_id" style="shape=partialRectangle;connectable=0;fillColor=none;top=0;left=0;bottom=0;right=0;align=left;spacingLeft=6;overflow=hidden;whiteSpace=wrap;html=1;" vertex="1" parent="4WcuhHbc12WLv7kI3l_H-368">
          <mxGeometry x="30" width="170" height="30" as="geometry">
            <mxRectangle width="170" height="30" as="alternateBounds" />
          </mxGeometry>
        </mxCell>
        <mxCell id="4WcuhHbc12WLv7kI3l_H-404" value="" style="shape=tableRow;horizontal=0;startSize=0;swimlaneHead=0;swimlaneBody=0;fillColor=none;collapsible=0;dropTarget=0;points=[[0,0.5],[1,0.5]];portConstraint=eastwest;top=0;left=0;right=0;bottom=0;" vertex="1" parent="4WcuhHbc12WLv7kI3l_H-364">
          <mxGeometry y="135" width="200" height="30" as="geometry" />
        </mxCell>
        <mxCell id="4WcuhHbc12WLv7kI3l_H-405" value="" style="shape=partialRectangle;connectable=0;fillColor=none;top=0;left=0;bottom=0;right=0;editable=1;overflow=hidden;whiteSpace=wrap;html=1;" vertex="1" parent="4WcuhHbc12WLv7kI3l_H-404">
          <mxGeometry width="30" height="30" as="geometry">
            <mxRectangle width="30" height="30" as="alternateBounds" />
          </mxGeometry>
        </mxCell>
        <mxCell id="4WcuhHbc12WLv7kI3l_H-406" value="raiting(float)" style="shape=partialRectangle;connectable=0;fillColor=none;top=0;left=0;bottom=0;right=0;align=left;spacingLeft=6;overflow=hidden;whiteSpace=wrap;html=1;" vertex="1" parent="4WcuhHbc12WLv7kI3l_H-404">
          <mxGeometry x="30" width="170" height="30" as="geometry">
            <mxRectangle width="170" height="30" as="alternateBounds" />
          </mxGeometry>
        </mxCell>
        <mxCell id="4WcuhHbc12WLv7kI3l_H-371" value="" style="shape=tableRow;horizontal=0;startSize=0;swimlaneHead=0;swimlaneBody=0;fillColor=none;collapsible=0;dropTarget=0;points=[[0,0.5],[1,0.5]];portConstraint=eastwest;top=0;left=0;right=0;bottom=0;" vertex="1" parent="4WcuhHbc12WLv7kI3l_H-364">
          <mxGeometry y="165" width="200" height="30" as="geometry" />
        </mxCell>
        <mxCell id="4WcuhHbc12WLv7kI3l_H-372" value="" style="shape=partialRectangle;connectable=0;fillColor=none;top=0;left=0;bottom=0;right=0;editable=1;overflow=hidden;whiteSpace=wrap;html=1;" vertex="1" parent="4WcuhHbc12WLv7kI3l_H-371">
          <mxGeometry width="30" height="30" as="geometry">
            <mxRectangle width="30" height="30" as="alternateBounds" />
          </mxGeometry>
        </mxCell>
        <mxCell id="4WcuhHbc12WLv7kI3l_H-373" value="created_time(string)" style="shape=partialRectangle;connectable=0;fillColor=none;top=0;left=0;bottom=0;right=0;align=left;spacingLeft=6;overflow=hidden;whiteSpace=wrap;html=1;" vertex="1" parent="4WcuhHbc12WLv7kI3l_H-371">
          <mxGeometry x="30" width="170" height="30" as="geometry">
            <mxRectangle width="170" height="30" as="alternateBounds" />
          </mxGeometry>
        </mxCell>
        <mxCell id="4WcuhHbc12WLv7kI3l_H-374" value="" style="shape=tableRow;horizontal=0;startSize=0;swimlaneHead=0;swimlaneBody=0;fillColor=none;collapsible=0;dropTarget=0;points=[[0,0.5],[1,0.5]];portConstraint=eastwest;top=0;left=0;right=0;bottom=0;" vertex="1" parent="4WcuhHbc12WLv7kI3l_H-364">
          <mxGeometry y="195" width="200" height="30" as="geometry" />
        </mxCell>
        <mxCell id="4WcuhHbc12WLv7kI3l_H-375" value="" style="shape=partialRectangle;connectable=0;fillColor=none;top=0;left=0;bottom=0;right=0;editable=1;overflow=hidden;whiteSpace=wrap;html=1;" vertex="1" parent="4WcuhHbc12WLv7kI3l_H-374">
          <mxGeometry width="30" height="30" as="geometry">
            <mxRectangle width="30" height="30" as="alternateBounds" />
          </mxGeometry>
        </mxCell>
        <mxCell id="4WcuhHbc12WLv7kI3l_H-376" value="event_type(int)" style="shape=partialRectangle;connectable=0;fillColor=none;top=0;left=0;bottom=0;right=0;align=left;spacingLeft=6;overflow=hidden;whiteSpace=wrap;html=1;" vertex="1" parent="4WcuhHbc12WLv7kI3l_H-374">
          <mxGeometry x="30" width="170" height="30" as="geometry">
            <mxRectangle width="170" height="30" as="alternateBounds" />
          </mxGeometry>
        </mxCell>
        <mxCell id="4WcuhHbc12WLv7kI3l_H-377" value="" style="shape=tableRow;horizontal=0;startSize=0;swimlaneHead=0;swimlaneBody=0;fillColor=none;collapsible=0;dropTarget=0;points=[[0,0.5],[1,0.5]];portConstraint=eastwest;top=0;left=0;right=0;bottom=0;" vertex="1" parent="4WcuhHbc12WLv7kI3l_H-364">
          <mxGeometry y="225" width="200" height="30" as="geometry" />
        </mxCell>
        <mxCell id="4WcuhHbc12WLv7kI3l_H-378" value="" style="shape=partialRectangle;connectable=0;fillColor=none;top=0;left=0;bottom=0;right=0;editable=1;overflow=hidden;whiteSpace=wrap;html=1;" vertex="1" parent="4WcuhHbc12WLv7kI3l_H-377">
          <mxGeometry width="30" height="30" as="geometry">
            <mxRectangle width="30" height="30" as="alternateBounds" />
          </mxGeometry>
        </mxCell>
        <mxCell id="4WcuhHbc12WLv7kI3l_H-379" value="description(string)" style="shape=partialRectangle;connectable=0;fillColor=none;top=0;left=0;bottom=0;right=0;align=left;spacingLeft=6;overflow=hidden;whiteSpace=wrap;html=1;" vertex="1" parent="4WcuhHbc12WLv7kI3l_H-377">
          <mxGeometry x="30" width="170" height="30" as="geometry">
            <mxRectangle width="170" height="30" as="alternateBounds" />
          </mxGeometry>
        </mxCell>
        <mxCell id="4WcuhHbc12WLv7kI3l_H-380" value="" style="shape=tableRow;horizontal=0;startSize=0;swimlaneHead=0;swimlaneBody=0;fillColor=none;collapsible=0;dropTarget=0;points=[[0,0.5],[1,0.5]];portConstraint=eastwest;top=0;left=0;right=0;bottom=0;" vertex="1" parent="4WcuhHbc12WLv7kI3l_H-364">
          <mxGeometry y="255" width="200" height="30" as="geometry" />
        </mxCell>
        <mxCell id="4WcuhHbc12WLv7kI3l_H-381" value="" style="shape=partialRectangle;connectable=0;fillColor=none;top=0;left=0;bottom=0;right=0;editable=1;overflow=hidden;whiteSpace=wrap;html=1;" vertex="1" parent="4WcuhHbc12WLv7kI3l_H-380">
          <mxGeometry width="30" height="30" as="geometry">
            <mxRectangle width="30" height="30" as="alternateBounds" />
          </mxGeometry>
        </mxCell>
        <mxCell id="4WcuhHbc12WLv7kI3l_H-382" value="location(string)" style="shape=partialRectangle;connectable=0;fillColor=none;top=0;left=0;bottom=0;right=0;align=left;spacingLeft=6;overflow=hidden;whiteSpace=wrap;html=1;" vertex="1" parent="4WcuhHbc12WLv7kI3l_H-380">
          <mxGeometry x="30" width="170" height="30" as="geometry">
            <mxRectangle width="170" height="30" as="alternateBounds" />
          </mxGeometry>
        </mxCell>
        <mxCell id="4WcuhHbc12WLv7kI3l_H-383" value="" style="shape=tableRow;horizontal=0;startSize=0;swimlaneHead=0;swimlaneBody=0;fillColor=none;collapsible=0;dropTarget=0;points=[[0,0.5],[1,0.5]];portConstraint=eastwest;top=0;left=0;right=0;bottom=0;" vertex="1" parent="4WcuhHbc12WLv7kI3l_H-364">
          <mxGeometry y="285" width="200" height="30" as="geometry" />
        </mxCell>
        <mxCell id="4WcuhHbc12WLv7kI3l_H-384" value="" style="shape=partialRectangle;connectable=0;fillColor=none;top=0;left=0;bottom=0;right=0;editable=1;overflow=hidden;whiteSpace=wrap;html=1;" vertex="1" parent="4WcuhHbc12WLv7kI3l_H-383">
          <mxGeometry width="30" height="30" as="geometry">
            <mxRectangle width="30" height="30" as="alternateBounds" />
          </mxGeometry>
        </mxCell>
        <mxCell id="4WcuhHbc12WLv7kI3l_H-385" value="time(string)" style="shape=partialRectangle;connectable=0;fillColor=none;top=0;left=0;bottom=0;right=0;align=left;spacingLeft=6;overflow=hidden;whiteSpace=wrap;html=1;" vertex="1" parent="4WcuhHbc12WLv7kI3l_H-383">
          <mxGeometry x="30" width="170" height="30" as="geometry">
            <mxRectangle width="170" height="30" as="alternateBounds" />
          </mxGeometry>
        </mxCell>
        <mxCell id="4WcuhHbc12WLv7kI3l_H-386" value="" style="shape=tableRow;horizontal=0;startSize=0;swimlaneHead=0;swimlaneBody=0;fillColor=none;collapsible=0;dropTarget=0;points=[[0,0.5],[1,0.5]];portConstraint=eastwest;top=0;left=0;right=0;bottom=0;" vertex="1" parent="4WcuhHbc12WLv7kI3l_H-364">
          <mxGeometry y="315" width="200" height="30" as="geometry" />
        </mxCell>
        <mxCell id="4WcuhHbc12WLv7kI3l_H-387" value="" style="shape=partialRectangle;connectable=0;fillColor=none;top=0;left=0;bottom=0;right=0;editable=1;overflow=hidden;whiteSpace=wrap;html=1;" vertex="1" parent="4WcuhHbc12WLv7kI3l_H-386">
          <mxGeometry width="30" height="30" as="geometry">
            <mxRectangle width="30" height="30" as="alternateBounds" />
          </mxGeometry>
        </mxCell>
        <mxCell id="4WcuhHbc12WLv7kI3l_H-388" value="avatar_picture_path(string)" style="shape=partialRectangle;connectable=0;fillColor=none;top=0;left=0;bottom=0;right=0;align=left;spacingLeft=6;overflow=hidden;whiteSpace=wrap;html=1;" vertex="1" parent="4WcuhHbc12WLv7kI3l_H-386">
          <mxGeometry x="30" width="170" height="30" as="geometry">
            <mxRectangle width="170" height="30" as="alternateBounds" />
          </mxGeometry>
        </mxCell>
        <mxCell id="4WcuhHbc12WLv7kI3l_H-407" value="subscription" style="shape=table;startSize=30;container=1;collapsible=1;childLayout=tableLayout;fixedRows=1;rowLines=0;fontStyle=1;align=center;resizeLast=1;html=1;fillColor=#ffe6cc;shadow=0;sketch=1;curveFitting=1;jiggle=2;rounded=1;strokeColor=#d79b00;" vertex="1" parent="1">
          <mxGeometry x="3370" y="310" width="180" height="90" as="geometry">
            <mxRectangle x="1241" y="130" width="70" height="30" as="alternateBounds" />
          </mxGeometry>
        </mxCell>
        <mxCell id="4WcuhHbc12WLv7kI3l_H-408" value="" style="shape=tableRow;horizontal=0;startSize=0;swimlaneHead=0;swimlaneBody=0;fillColor=none;collapsible=0;dropTarget=0;points=[[0,0.5],[1,0.5]];portConstraint=eastwest;top=0;left=0;right=0;bottom=0;" vertex="1" parent="4WcuhHbc12WLv7kI3l_H-407">
          <mxGeometry y="30" width="180" height="30" as="geometry" />
        </mxCell>
        <mxCell id="4WcuhHbc12WLv7kI3l_H-409" value="&lt;b&gt;FK&lt;/b&gt;" style="shape=partialRectangle;connectable=0;fillColor=none;top=0;left=0;bottom=0;right=0;editable=1;overflow=hidden;whiteSpace=wrap;html=1;" vertex="1" parent="4WcuhHbc12WLv7kI3l_H-408">
          <mxGeometry width="30" height="30" as="geometry">
            <mxRectangle width="30" height="30" as="alternateBounds" />
          </mxGeometry>
        </mxCell>
        <mxCell id="4WcuhHbc12WLv7kI3l_H-410" value="subscription_user_id" style="shape=partialRectangle;connectable=0;fillColor=none;top=0;left=0;bottom=0;right=0;align=left;spacingLeft=6;overflow=hidden;whiteSpace=wrap;html=1;" vertex="1" parent="4WcuhHbc12WLv7kI3l_H-408">
          <mxGeometry x="30" width="150" height="30" as="geometry">
            <mxRectangle width="150" height="30" as="alternateBounds" />
          </mxGeometry>
        </mxCell>
        <mxCell id="4WcuhHbc12WLv7kI3l_H-411" value="" style="shape=tableRow;horizontal=0;startSize=0;swimlaneHead=0;swimlaneBody=0;fillColor=none;collapsible=0;dropTarget=0;points=[[0,0.5],[1,0.5]];portConstraint=eastwest;top=0;left=0;right=0;bottom=0;" vertex="1" parent="4WcuhHbc12WLv7kI3l_H-407">
          <mxGeometry y="60" width="180" height="30" as="geometry" />
        </mxCell>
        <mxCell id="4WcuhHbc12WLv7kI3l_H-412" value="&lt;b&gt;FK&lt;/b&gt;" style="shape=partialRectangle;connectable=0;fillColor=none;top=0;left=0;bottom=0;right=0;editable=1;overflow=hidden;whiteSpace=wrap;html=1;" vertex="1" parent="4WcuhHbc12WLv7kI3l_H-411">
          <mxGeometry width="30" height="30" as="geometry">
            <mxRectangle width="30" height="30" as="alternateBounds" />
          </mxGeometry>
        </mxCell>
        <mxCell id="4WcuhHbc12WLv7kI3l_H-413" value="subscriber_user_id" style="shape=partialRectangle;connectable=0;fillColor=none;top=0;left=0;bottom=0;right=0;align=left;spacingLeft=6;overflow=hidden;whiteSpace=wrap;html=1;" vertex="1" parent="4WcuhHbc12WLv7kI3l_H-411">
          <mxGeometry x="30" width="150" height="30" as="geometry">
            <mxRectangle width="150" height="30" as="alternateBounds" />
          </mxGeometry>
        </mxCell>
        <mxCell id="4WcuhHbc12WLv7kI3l_H-414" style="edgeStyle=orthogonalEdgeStyle;rounded=1;orthogonalLoop=1;jettySize=auto;html=1;exitX=0;exitY=0.5;exitDx=0;exitDy=0;entryX=-0.005;entryY=0.167;entryDx=0;entryDy=0;entryPerimeter=0;startArrow=none;startFill=0;endArrow=none;endFill=0;fillColor=#fff2cc;strokeColor=#d6b656;" edge="1" parent="1" source="4WcuhHbc12WLv7kI3l_H-411" target="4WcuhHbc12WLv7kI3l_H-333">
          <mxGeometry relative="1" as="geometry">
            <Array as="points">
              <mxPoint x="3320" y="385" />
              <mxPoint x="3320" y="513" />
            </Array>
          </mxGeometry>
        </mxCell>
        <mxCell id="4WcuhHbc12WLv7kI3l_H-415" style="edgeStyle=orthogonalEdgeStyle;rounded=1;orthogonalLoop=1;jettySize=auto;html=1;exitX=0;exitY=0.5;exitDx=0;exitDy=0;entryX=-0.005;entryY=0.167;entryDx=0;entryDy=0;entryPerimeter=0;startArrow=none;startFill=0;endArrow=none;endFill=0;fillColor=#fff2cc;strokeColor=#d6b656;" edge="1" parent="1" source="4WcuhHbc12WLv7kI3l_H-408" target="4WcuhHbc12WLv7kI3l_H-333">
          <mxGeometry relative="1" as="geometry">
            <Array as="points">
              <mxPoint x="3320" y="355" />
              <mxPoint x="3320" y="513" />
            </Array>
          </mxGeometry>
        </mxCell>
        <mxCell id="4WcuhHbc12WLv7kI3l_H-416" value="event_participation" style="shape=table;startSize=30;container=1;collapsible=1;childLayout=tableLayout;fixedRows=1;rowLines=0;fontStyle=1;align=center;resizeLast=1;html=1;fillColor=#dae8fc;shadow=0;sketch=1;curveFitting=1;jiggle=2;rounded=1;strokeColor=#6c8ebf;" vertex="1" parent="1">
          <mxGeometry x="3830" y="319" width="200" height="90" as="geometry">
            <mxRectangle x="1241" y="130" width="70" height="30" as="alternateBounds" />
          </mxGeometry>
        </mxCell>
        <mxCell id="4WcuhHbc12WLv7kI3l_H-417" value="" style="shape=tableRow;horizontal=0;startSize=0;swimlaneHead=0;swimlaneBody=0;fillColor=none;collapsible=0;dropTarget=0;points=[[0,0.5],[1,0.5]];portConstraint=eastwest;top=0;left=0;right=0;bottom=0;" vertex="1" parent="4WcuhHbc12WLv7kI3l_H-416">
          <mxGeometry y="30" width="200" height="30" as="geometry" />
        </mxCell>
        <mxCell id="4WcuhHbc12WLv7kI3l_H-418" value="&lt;b&gt;FK&lt;/b&gt;" style="shape=partialRectangle;connectable=0;fillColor=none;top=0;left=0;bottom=0;right=0;editable=1;overflow=hidden;whiteSpace=wrap;html=1;" vertex="1" parent="4WcuhHbc12WLv7kI3l_H-417">
          <mxGeometry width="30" height="30" as="geometry">
            <mxRectangle width="30" height="30" as="alternateBounds" />
          </mxGeometry>
        </mxCell>
        <mxCell id="4WcuhHbc12WLv7kI3l_H-419" value="user_id" style="shape=partialRectangle;connectable=0;fillColor=none;top=0;left=0;bottom=0;right=0;align=left;spacingLeft=6;overflow=hidden;whiteSpace=wrap;html=1;" vertex="1" parent="4WcuhHbc12WLv7kI3l_H-417">
          <mxGeometry x="30" width="170" height="30" as="geometry">
            <mxRectangle width="170" height="30" as="alternateBounds" />
          </mxGeometry>
        </mxCell>
        <mxCell id="4WcuhHbc12WLv7kI3l_H-420" value="" style="shape=tableRow;horizontal=0;startSize=0;swimlaneHead=0;swimlaneBody=0;fillColor=none;collapsible=0;dropTarget=0;points=[[0,0.5],[1,0.5]];portConstraint=eastwest;top=0;left=0;right=0;bottom=0;" vertex="1" parent="4WcuhHbc12WLv7kI3l_H-416">
          <mxGeometry y="60" width="200" height="30" as="geometry" />
        </mxCell>
        <mxCell id="4WcuhHbc12WLv7kI3l_H-421" value="&lt;b&gt;FK&lt;/b&gt;" style="shape=partialRectangle;connectable=0;fillColor=none;top=0;left=0;bottom=0;right=0;editable=1;overflow=hidden;whiteSpace=wrap;html=1;" vertex="1" parent="4WcuhHbc12WLv7kI3l_H-420">
          <mxGeometry width="30" height="30" as="geometry">
            <mxRectangle width="30" height="30" as="alternateBounds" />
          </mxGeometry>
        </mxCell>
        <mxCell id="4WcuhHbc12WLv7kI3l_H-422" value="event_id" style="shape=partialRectangle;connectable=0;fillColor=none;top=0;left=0;bottom=0;right=0;align=left;spacingLeft=6;overflow=hidden;whiteSpace=wrap;html=1;" vertex="1" parent="4WcuhHbc12WLv7kI3l_H-420">
          <mxGeometry x="30" width="170" height="30" as="geometry">
            <mxRectangle width="170" height="30" as="alternateBounds" />
          </mxGeometry>
        </mxCell>
        <mxCell id="4WcuhHbc12WLv7kI3l_H-423" style="edgeStyle=orthogonalEdgeStyle;rounded=1;orthogonalLoop=1;jettySize=auto;html=1;exitX=1.005;exitY=0.143;exitDx=0;exitDy=0;entryX=-0.001;entryY=0.627;entryDx=0;entryDy=0;endArrow=none;endFill=0;fillColor=#fff2cc;strokeColor=#d6b656;exitPerimeter=0;entryPerimeter=0;startArrow=none;startFill=0;" edge="1" parent="1" source="4WcuhHbc12WLv7kI3l_H-333" target="4WcuhHbc12WLv7kI3l_H-429">
          <mxGeometry relative="1" as="geometry">
            <Array as="points">
              <mxPoint x="3650" y="511" />
              <mxPoint x="3650" y="269" />
            </Array>
          </mxGeometry>
        </mxCell>
        <mxCell id="4WcuhHbc12WLv7kI3l_H-424" style="edgeStyle=orthogonalEdgeStyle;rounded=1;orthogonalLoop=1;jettySize=auto;html=1;exitX=1.005;exitY=0.211;exitDx=0;exitDy=0;entryX=0.999;entryY=0.593;entryDx=0;entryDy=0;exitPerimeter=0;endArrow=none;endFill=0;fillColor=#dae8fc;strokeColor=#6c8ebf;entryPerimeter=0;startArrow=none;startFill=0;" edge="1" parent="1" source="4WcuhHbc12WLv7kI3l_H-365" target="4WcuhHbc12WLv7kI3l_H-420">
          <mxGeometry relative="1" as="geometry">
            <Array as="points">
              <mxPoint x="4080" y="521" />
              <mxPoint x="4080" y="397" />
            </Array>
          </mxGeometry>
        </mxCell>
        <mxCell id="4WcuhHbc12WLv7kI3l_H-425" value="event_recommendation" style="shape=table;startSize=30;container=1;collapsible=1;childLayout=tableLayout;fixedRows=1;rowLines=0;fontStyle=1;align=center;resizeLast=1;html=1;fillColor=#dae8fc;shadow=0;sketch=1;curveFitting=1;jiggle=2;rounded=1;strokeColor=#6c8ebf;" vertex="1" parent="1">
          <mxGeometry x="3830" y="190" width="200" height="90" as="geometry">
            <mxRectangle x="1241" y="130" width="70" height="30" as="alternateBounds" />
          </mxGeometry>
        </mxCell>
        <mxCell id="4WcuhHbc12WLv7kI3l_H-426" value="" style="shape=tableRow;horizontal=0;startSize=0;swimlaneHead=0;swimlaneBody=0;fillColor=none;collapsible=0;dropTarget=0;points=[[0,0.5],[1,0.5]];portConstraint=eastwest;top=0;left=0;right=0;bottom=0;" vertex="1" parent="4WcuhHbc12WLv7kI3l_H-425">
          <mxGeometry y="30" width="200" height="30" as="geometry" />
        </mxCell>
        <mxCell id="4WcuhHbc12WLv7kI3l_H-427" value="&lt;b&gt;FK&lt;/b&gt;" style="shape=partialRectangle;connectable=0;fillColor=none;top=0;left=0;bottom=0;right=0;editable=1;overflow=hidden;whiteSpace=wrap;html=1;" vertex="1" parent="4WcuhHbc12WLv7kI3l_H-426">
          <mxGeometry width="30" height="30" as="geometry">
            <mxRectangle width="30" height="30" as="alternateBounds" />
          </mxGeometry>
        </mxCell>
        <mxCell id="4WcuhHbc12WLv7kI3l_H-428" value="event_id" style="shape=partialRectangle;connectable=0;fillColor=none;top=0;left=0;bottom=0;right=0;align=left;spacingLeft=6;overflow=hidden;whiteSpace=wrap;html=1;" vertex="1" parent="4WcuhHbc12WLv7kI3l_H-426">
          <mxGeometry x="30" width="170" height="30" as="geometry">
            <mxRectangle width="170" height="30" as="alternateBounds" />
          </mxGeometry>
        </mxCell>
        <mxCell id="4WcuhHbc12WLv7kI3l_H-429" value="" style="shape=tableRow;horizontal=0;startSize=0;swimlaneHead=0;swimlaneBody=0;fillColor=none;collapsible=0;dropTarget=0;points=[[0,0.5],[1,0.5]];portConstraint=eastwest;top=0;left=0;right=0;bottom=0;" vertex="1" parent="4WcuhHbc12WLv7kI3l_H-425">
          <mxGeometry y="60" width="200" height="30" as="geometry" />
        </mxCell>
        <mxCell id="4WcuhHbc12WLv7kI3l_H-430" value="&lt;b&gt;FK&lt;/b&gt;" style="shape=partialRectangle;connectable=0;fillColor=none;top=0;left=0;bottom=0;right=0;editable=1;overflow=hidden;whiteSpace=wrap;html=1;" vertex="1" parent="4WcuhHbc12WLv7kI3l_H-429">
          <mxGeometry width="30" height="30" as="geometry">
            <mxRectangle width="30" height="30" as="alternateBounds" />
          </mxGeometry>
        </mxCell>
        <mxCell id="4WcuhHbc12WLv7kI3l_H-431" value="user_id" style="shape=partialRectangle;connectable=0;fillColor=none;top=0;left=0;bottom=0;right=0;align=left;spacingLeft=6;overflow=hidden;whiteSpace=wrap;html=1;" vertex="1" parent="4WcuhHbc12WLv7kI3l_H-429">
          <mxGeometry x="30" width="170" height="30" as="geometry">
            <mxRectangle width="170" height="30" as="alternateBounds" />
          </mxGeometry>
        </mxCell>
        <mxCell id="4WcuhHbc12WLv7kI3l_H-432" style="edgeStyle=orthogonalEdgeStyle;rounded=1;orthogonalLoop=1;jettySize=auto;html=1;exitX=1.008;exitY=0.25;exitDx=0;exitDy=0;entryX=-0.007;entryY=0.34;entryDx=0;entryDy=0;endArrow=none;endFill=0;fillColor=#fff2cc;strokeColor=#d6b656;exitPerimeter=0;entryPerimeter=0;startArrow=none;startFill=0;" edge="1" parent="1" source="4WcuhHbc12WLv7kI3l_H-333" target="4WcuhHbc12WLv7kI3l_H-417">
          <mxGeometry relative="1" as="geometry">
            <mxPoint x="3561" y="521" as="sourcePoint" />
            <mxPoint x="3840" y="279" as="targetPoint" />
          </mxGeometry>
        </mxCell>
        <mxCell id="4WcuhHbc12WLv7kI3l_H-434" style="edgeStyle=orthogonalEdgeStyle;rounded=1;orthogonalLoop=1;jettySize=auto;html=1;exitX=1.009;exitY=0.33;exitDx=0;exitDy=0;entryX=1.002;entryY=0.37;entryDx=0;entryDy=0;exitPerimeter=0;endArrow=none;endFill=0;fillColor=#dae8fc;strokeColor=#6c8ebf;entryPerimeter=0;startArrow=none;startFill=0;" edge="1" parent="1" source="4WcuhHbc12WLv7kI3l_H-365" target="4WcuhHbc12WLv7kI3l_H-426">
          <mxGeometry relative="1" as="geometry">
            <mxPoint x="4041" y="531" as="sourcePoint" />
            <mxPoint x="4040" y="407" as="targetPoint" />
            <Array as="points">
              <mxPoint x="4032" y="531" />
              <mxPoint x="4090" y="531" />
              <mxPoint x="4090" y="231" />
            </Array>
          </mxGeometry>
        </mxCell>
        <mxCell id="4WcuhHbc12WLv7kI3l_H-435" style="edgeStyle=orthogonalEdgeStyle;rounded=1;orthogonalLoop=1;jettySize=auto;html=1;exitX=1.002;exitY=0.372;exitDx=0;exitDy=0;entryX=-0.022;entryY=0.577;entryDx=0;entryDy=0;endArrow=none;endFill=0;fillColor=#fff2cc;strokeColor=#d6b656;exitPerimeter=0;entryPerimeter=0;startArrow=none;startFill=0;" edge="1" parent="1" source="4WcuhHbc12WLv7kI3l_H-333" target="4WcuhHbc12WLv7kI3l_H-368">
          <mxGeometry relative="1" as="geometry">
            <mxPoint x="3561" y="530" as="sourcePoint" />
            <mxPoint x="3839" y="369" as="targetPoint" />
          </mxGeometry>
        </mxCell>
        <mxCell id="4WcuhHbc12WLv7kI3l_H-436" value="event_comment" style="shape=table;startSize=30;container=1;collapsible=1;childLayout=tableLayout;fixedRows=1;rowLines=0;fontStyle=1;align=center;resizeLast=1;html=1;fillColor=#dae8fc;shadow=0;sketch=1;curveFitting=1;jiggle=2;rounded=1;strokeColor=#6c8ebf;" vertex="1" parent="1">
          <mxGeometry x="3830" y="880" width="190" height="150" as="geometry">
            <mxRectangle x="1241" y="130" width="70" height="30" as="alternateBounds" />
          </mxGeometry>
        </mxCell>
        <mxCell id="4WcuhHbc12WLv7kI3l_H-437" value="" style="shape=tableRow;horizontal=0;startSize=0;swimlaneHead=0;swimlaneBody=0;fillColor=none;collapsible=0;dropTarget=0;points=[[0,0.5],[1,0.5]];portConstraint=eastwest;top=0;left=0;right=0;bottom=1;" vertex="1" parent="4WcuhHbc12WLv7kI3l_H-436">
          <mxGeometry y="30" width="190" height="30" as="geometry" />
        </mxCell>
        <mxCell id="4WcuhHbc12WLv7kI3l_H-438" value="PK" style="shape=partialRectangle;connectable=0;fillColor=none;top=0;left=0;bottom=0;right=0;fontStyle=1;overflow=hidden;whiteSpace=wrap;html=1;" vertex="1" parent="4WcuhHbc12WLv7kI3l_H-437">
          <mxGeometry width="30" height="30" as="geometry">
            <mxRectangle width="30" height="30" as="alternateBounds" />
          </mxGeometry>
        </mxCell>
        <mxCell id="4WcuhHbc12WLv7kI3l_H-439" value="id" style="shape=partialRectangle;connectable=0;fillColor=none;top=0;left=0;bottom=0;right=0;align=left;spacingLeft=6;fontStyle=5;overflow=hidden;whiteSpace=wrap;html=1;" vertex="1" parent="4WcuhHbc12WLv7kI3l_H-437">
          <mxGeometry x="30" width="160" height="30" as="geometry">
            <mxRectangle width="160" height="30" as="alternateBounds" />
          </mxGeometry>
        </mxCell>
        <mxCell id="4WcuhHbc12WLv7kI3l_H-440" value="" style="shape=tableRow;horizontal=0;startSize=0;swimlaneHead=0;swimlaneBody=0;fillColor=none;collapsible=0;dropTarget=0;points=[[0,0.5],[1,0.5]];portConstraint=eastwest;top=0;left=0;right=0;bottom=0;" vertex="1" parent="4WcuhHbc12WLv7kI3l_H-436">
          <mxGeometry y="60" width="190" height="30" as="geometry" />
        </mxCell>
        <mxCell id="4WcuhHbc12WLv7kI3l_H-441" value="" style="shape=partialRectangle;connectable=0;fillColor=none;top=0;left=0;bottom=0;right=0;editable=1;overflow=hidden;whiteSpace=wrap;html=1;" vertex="1" parent="4WcuhHbc12WLv7kI3l_H-440">
          <mxGeometry width="30" height="30" as="geometry">
            <mxRectangle width="30" height="30" as="alternateBounds" />
          </mxGeometry>
        </mxCell>
        <mxCell id="4WcuhHbc12WLv7kI3l_H-442" value="user_id" style="shape=partialRectangle;connectable=0;fillColor=none;top=0;left=0;bottom=0;right=0;align=left;spacingLeft=6;overflow=hidden;whiteSpace=wrap;html=1;" vertex="1" parent="4WcuhHbc12WLv7kI3l_H-440">
          <mxGeometry x="30" width="160" height="30" as="geometry">
            <mxRectangle width="160" height="30" as="alternateBounds" />
          </mxGeometry>
        </mxCell>
        <mxCell id="4WcuhHbc12WLv7kI3l_H-443" value="" style="shape=tableRow;horizontal=0;startSize=0;swimlaneHead=0;swimlaneBody=0;fillColor=none;collapsible=0;dropTarget=0;points=[[0,0.5],[1,0.5]];portConstraint=eastwest;top=0;left=0;right=0;bottom=0;" vertex="1" parent="4WcuhHbc12WLv7kI3l_H-436">
          <mxGeometry y="90" width="190" height="30" as="geometry" />
        </mxCell>
        <mxCell id="4WcuhHbc12WLv7kI3l_H-444" value="" style="shape=partialRectangle;connectable=0;fillColor=none;top=0;left=0;bottom=0;right=0;editable=1;overflow=hidden;whiteSpace=wrap;html=1;" vertex="1" parent="4WcuhHbc12WLv7kI3l_H-443">
          <mxGeometry width="30" height="30" as="geometry">
            <mxRectangle width="30" height="30" as="alternateBounds" />
          </mxGeometry>
        </mxCell>
        <mxCell id="4WcuhHbc12WLv7kI3l_H-445" value="event_id" style="shape=partialRectangle;connectable=0;fillColor=none;top=0;left=0;bottom=0;right=0;align=left;spacingLeft=6;overflow=hidden;whiteSpace=wrap;html=1;" vertex="1" parent="4WcuhHbc12WLv7kI3l_H-443">
          <mxGeometry x="30" width="160" height="30" as="geometry">
            <mxRectangle width="160" height="30" as="alternateBounds" />
          </mxGeometry>
        </mxCell>
        <mxCell id="4WcuhHbc12WLv7kI3l_H-446" value="" style="shape=tableRow;horizontal=0;startSize=0;swimlaneHead=0;swimlaneBody=0;fillColor=none;collapsible=0;dropTarget=0;points=[[0,0.5],[1,0.5]];portConstraint=eastwest;top=0;left=0;right=0;bottom=0;" vertex="1" parent="4WcuhHbc12WLv7kI3l_H-436">
          <mxGeometry y="120" width="190" height="30" as="geometry" />
        </mxCell>
        <mxCell id="4WcuhHbc12WLv7kI3l_H-447" value="" style="shape=partialRectangle;connectable=0;fillColor=none;top=0;left=0;bottom=0;right=0;editable=1;overflow=hidden;whiteSpace=wrap;html=1;" vertex="1" parent="4WcuhHbc12WLv7kI3l_H-446">
          <mxGeometry width="30" height="30" as="geometry">
            <mxRectangle width="30" height="30" as="alternateBounds" />
          </mxGeometry>
        </mxCell>
        <mxCell id="4WcuhHbc12WLv7kI3l_H-448" value="text(string)" style="shape=partialRectangle;connectable=0;fillColor=none;top=0;left=0;bottom=0;right=0;align=left;spacingLeft=6;overflow=hidden;whiteSpace=wrap;html=1;" vertex="1" parent="4WcuhHbc12WLv7kI3l_H-446">
          <mxGeometry x="30" width="160" height="30" as="geometry">
            <mxRectangle width="160" height="30" as="alternateBounds" />
          </mxGeometry>
        </mxCell>
        <mxCell id="4WcuhHbc12WLv7kI3l_H-449" style="edgeStyle=orthogonalEdgeStyle;rounded=1;orthogonalLoop=1;jettySize=auto;html=1;entryX=-0.02;entryY=0.73;entryDx=0;entryDy=0;endArrow=none;endFill=0;fillColor=#fff2cc;strokeColor=#d6b656;entryPerimeter=0;startArrow=none;startFill=0;exitX=1.018;exitY=0.525;exitDx=0;exitDy=0;exitPerimeter=0;" edge="1" parent="1" source="4WcuhHbc12WLv7kI3l_H-333" target="4WcuhHbc12WLv7kI3l_H-440">
          <mxGeometry relative="1" as="geometry">
            <mxPoint x="3590" y="570" as="sourcePoint" />
            <mxPoint x="3836" y="607" as="targetPoint" />
            <Array as="points">
              <mxPoint x="3553" y="540" />
              <mxPoint x="3670" y="540" />
              <mxPoint x="3670" y="962" />
            </Array>
          </mxGeometry>
        </mxCell>
        <mxCell id="4WcuhHbc12WLv7kI3l_H-450" style="edgeStyle=orthogonalEdgeStyle;rounded=1;orthogonalLoop=1;jettySize=auto;html=1;exitX=1.021;exitY=0.552;exitDx=0;exitDy=0;entryX=1.006;entryY=0.436;entryDx=0;entryDy=0;exitPerimeter=0;endArrow=none;endFill=0;fillColor=#dae8fc;strokeColor=#6c8ebf;entryPerimeter=0;startArrow=none;startFill=0;" edge="1" parent="1" source="4WcuhHbc12WLv7kI3l_H-443" target="4WcuhHbc12WLv7kI3l_H-365">
          <mxGeometry relative="1" as="geometry">
            <mxPoint x="4042" y="540" as="sourcePoint" />
            <mxPoint x="4040" y="241" as="targetPoint" />
            <Array as="points">
              <mxPoint x="4080" y="987" />
              <mxPoint x="4080" y="540" />
              <mxPoint x="4031" y="540" />
            </Array>
          </mxGeometry>
        </mxCell>
        <mxCell id="4WcuhHbc12WLv7kI3l_H-452" value="message" style="shape=table;startSize=30;container=1;collapsible=1;childLayout=tableLayout;fixedRows=1;rowLines=0;fontStyle=1;align=center;resizeLast=1;html=1;fillColor=#f8cecc;shadow=0;sketch=1;curveFitting=1;jiggle=2;rounded=1;strokeColor=#b85450;" vertex="1" parent="1">
          <mxGeometry x="3020" y="444" width="180" height="240" as="geometry">
            <mxRectangle x="1241" y="130" width="70" height="30" as="alternateBounds" />
          </mxGeometry>
        </mxCell>
        <mxCell id="4WcuhHbc12WLv7kI3l_H-453" value="" style="shape=tableRow;horizontal=0;startSize=0;swimlaneHead=0;swimlaneBody=0;fillColor=none;collapsible=0;dropTarget=0;points=[[0,0.5],[1,0.5]];portConstraint=eastwest;top=0;left=0;right=0;bottom=1;" vertex="1" parent="4WcuhHbc12WLv7kI3l_H-452">
          <mxGeometry y="30" width="180" height="30" as="geometry" />
        </mxCell>
        <mxCell id="4WcuhHbc12WLv7kI3l_H-454" value="PK" style="shape=partialRectangle;connectable=0;fillColor=none;top=0;left=0;bottom=0;right=0;fontStyle=1;overflow=hidden;whiteSpace=wrap;html=1;" vertex="1" parent="4WcuhHbc12WLv7kI3l_H-453">
          <mxGeometry width="30" height="30" as="geometry">
            <mxRectangle width="30" height="30" as="alternateBounds" />
          </mxGeometry>
        </mxCell>
        <mxCell id="4WcuhHbc12WLv7kI3l_H-455" value="id" style="shape=partialRectangle;connectable=0;fillColor=none;top=0;left=0;bottom=0;right=0;align=left;spacingLeft=6;fontStyle=5;overflow=hidden;whiteSpace=wrap;html=1;" vertex="1" parent="4WcuhHbc12WLv7kI3l_H-453">
          <mxGeometry x="30" width="150" height="30" as="geometry">
            <mxRectangle width="150" height="30" as="alternateBounds" />
          </mxGeometry>
        </mxCell>
        <mxCell id="4WcuhHbc12WLv7kI3l_H-456" value="" style="shape=tableRow;horizontal=0;startSize=0;swimlaneHead=0;swimlaneBody=0;fillColor=none;collapsible=0;dropTarget=0;points=[[0,0.5],[1,0.5]];portConstraint=eastwest;top=0;left=0;right=0;bottom=0;" vertex="1" parent="4WcuhHbc12WLv7kI3l_H-452">
          <mxGeometry y="60" width="180" height="30" as="geometry" />
        </mxCell>
        <mxCell id="4WcuhHbc12WLv7kI3l_H-457" value="" style="shape=partialRectangle;connectable=0;fillColor=none;top=0;left=0;bottom=0;right=0;editable=1;overflow=hidden;whiteSpace=wrap;html=1;" vertex="1" parent="4WcuhHbc12WLv7kI3l_H-456">
          <mxGeometry width="30" height="30" as="geometry">
            <mxRectangle width="30" height="30" as="alternateBounds" />
          </mxGeometry>
        </mxCell>
        <mxCell id="4WcuhHbc12WLv7kI3l_H-458" value="author_id" style="shape=partialRectangle;connectable=0;fillColor=none;top=0;left=0;bottom=0;right=0;align=left;spacingLeft=6;overflow=hidden;whiteSpace=wrap;html=1;" vertex="1" parent="4WcuhHbc12WLv7kI3l_H-456">
          <mxGeometry x="30" width="150" height="30" as="geometry">
            <mxRectangle width="150" height="30" as="alternateBounds" />
          </mxGeometry>
        </mxCell>
        <mxCell id="4WcuhHbc12WLv7kI3l_H-459" value="" style="shape=tableRow;horizontal=0;startSize=0;swimlaneHead=0;swimlaneBody=0;fillColor=none;collapsible=0;dropTarget=0;points=[[0,0.5],[1,0.5]];portConstraint=eastwest;top=0;left=0;right=0;bottom=0;" vertex="1" parent="4WcuhHbc12WLv7kI3l_H-452">
          <mxGeometry y="90" width="180" height="30" as="geometry" />
        </mxCell>
        <mxCell id="4WcuhHbc12WLv7kI3l_H-460" value="" style="shape=partialRectangle;connectable=0;fillColor=none;top=0;left=0;bottom=0;right=0;editable=1;overflow=hidden;whiteSpace=wrap;html=1;" vertex="1" parent="4WcuhHbc12WLv7kI3l_H-459">
          <mxGeometry width="30" height="30" as="geometry">
            <mxRectangle width="30" height="30" as="alternateBounds" />
          </mxGeometry>
        </mxCell>
        <mxCell id="4WcuhHbc12WLv7kI3l_H-461" value="room_id" style="shape=partialRectangle;connectable=0;fillColor=none;top=0;left=0;bottom=0;right=0;align=left;spacingLeft=6;overflow=hidden;whiteSpace=wrap;html=1;" vertex="1" parent="4WcuhHbc12WLv7kI3l_H-459">
          <mxGeometry x="30" width="150" height="30" as="geometry">
            <mxRectangle width="150" height="30" as="alternateBounds" />
          </mxGeometry>
        </mxCell>
        <mxCell id="4WcuhHbc12WLv7kI3l_H-462" value="" style="shape=tableRow;horizontal=0;startSize=0;swimlaneHead=0;swimlaneBody=0;fillColor=none;collapsible=0;dropTarget=0;points=[[0,0.5],[1,0.5]];portConstraint=eastwest;top=0;left=0;right=0;bottom=0;" vertex="1" parent="4WcuhHbc12WLv7kI3l_H-452">
          <mxGeometry y="120" width="180" height="30" as="geometry" />
        </mxCell>
        <mxCell id="4WcuhHbc12WLv7kI3l_H-463" value="" style="shape=partialRectangle;connectable=0;fillColor=none;top=0;left=0;bottom=0;right=0;editable=1;overflow=hidden;whiteSpace=wrap;html=1;" vertex="1" parent="4WcuhHbc12WLv7kI3l_H-462">
          <mxGeometry width="30" height="30" as="geometry">
            <mxRectangle width="30" height="30" as="alternateBounds" />
          </mxGeometry>
        </mxCell>
        <mxCell id="4WcuhHbc12WLv7kI3l_H-464" value="text(string)" style="shape=partialRectangle;connectable=0;fillColor=none;top=0;left=0;bottom=0;right=0;align=left;spacingLeft=6;overflow=hidden;whiteSpace=wrap;html=1;" vertex="1" parent="4WcuhHbc12WLv7kI3l_H-462">
          <mxGeometry x="30" width="150" height="30" as="geometry">
            <mxRectangle width="150" height="30" as="alternateBounds" />
          </mxGeometry>
        </mxCell>
        <mxCell id="4WcuhHbc12WLv7kI3l_H-465" value="" style="shape=tableRow;horizontal=0;startSize=0;swimlaneHead=0;swimlaneBody=0;fillColor=none;collapsible=0;dropTarget=0;points=[[0,0.5],[1,0.5]];portConstraint=eastwest;top=0;left=0;right=0;bottom=0;" vertex="1" parent="4WcuhHbc12WLv7kI3l_H-452">
          <mxGeometry y="150" width="180" height="30" as="geometry" />
        </mxCell>
        <mxCell id="4WcuhHbc12WLv7kI3l_H-466" value="" style="shape=partialRectangle;connectable=0;fillColor=none;top=0;left=0;bottom=0;right=0;editable=1;overflow=hidden;whiteSpace=wrap;html=1;" vertex="1" parent="4WcuhHbc12WLv7kI3l_H-465">
          <mxGeometry width="30" height="30" as="geometry">
            <mxRectangle width="30" height="30" as="alternateBounds" />
          </mxGeometry>
        </mxCell>
        <mxCell id="4WcuhHbc12WLv7kI3l_H-467" value="sending_time(string)" style="shape=partialRectangle;connectable=0;fillColor=none;top=0;left=0;bottom=0;right=0;align=left;spacingLeft=6;overflow=hidden;whiteSpace=wrap;html=1;" vertex="1" parent="4WcuhHbc12WLv7kI3l_H-465">
          <mxGeometry x="30" width="150" height="30" as="geometry">
            <mxRectangle width="150" height="30" as="alternateBounds" />
          </mxGeometry>
        </mxCell>
        <mxCell id="4WcuhHbc12WLv7kI3l_H-468" value="" style="shape=tableRow;horizontal=0;startSize=0;swimlaneHead=0;swimlaneBody=0;fillColor=none;collapsible=0;dropTarget=0;points=[[0,0.5],[1,0.5]];portConstraint=eastwest;top=0;left=0;right=0;bottom=0;" vertex="1" parent="4WcuhHbc12WLv7kI3l_H-452">
          <mxGeometry y="180" width="180" height="30" as="geometry" />
        </mxCell>
        <mxCell id="4WcuhHbc12WLv7kI3l_H-469" value="" style="shape=partialRectangle;connectable=0;fillColor=none;top=0;left=0;bottom=0;right=0;editable=1;overflow=hidden;whiteSpace=wrap;html=1;" vertex="1" parent="4WcuhHbc12WLv7kI3l_H-468">
          <mxGeometry width="30" height="30" as="geometry">
            <mxRectangle width="30" height="30" as="alternateBounds" />
          </mxGeometry>
        </mxCell>
        <mxCell id="4WcuhHbc12WLv7kI3l_H-470" value="is_delivered(bool)" style="shape=partialRectangle;connectable=0;fillColor=none;top=0;left=0;bottom=0;right=0;align=left;spacingLeft=6;overflow=hidden;whiteSpace=wrap;html=1;" vertex="1" parent="4WcuhHbc12WLv7kI3l_H-468">
          <mxGeometry x="30" width="150" height="30" as="geometry">
            <mxRectangle width="150" height="30" as="alternateBounds" />
          </mxGeometry>
        </mxCell>
        <mxCell id="4WcuhHbc12WLv7kI3l_H-471" value="" style="shape=tableRow;horizontal=0;startSize=0;swimlaneHead=0;swimlaneBody=0;fillColor=none;collapsible=0;dropTarget=0;points=[[0,0.5],[1,0.5]];portConstraint=eastwest;top=0;left=0;right=0;bottom=0;" vertex="1" parent="4WcuhHbc12WLv7kI3l_H-452">
          <mxGeometry y="210" width="180" height="30" as="geometry" />
        </mxCell>
        <mxCell id="4WcuhHbc12WLv7kI3l_H-472" value="" style="shape=partialRectangle;connectable=0;fillColor=none;top=0;left=0;bottom=0;right=0;editable=1;overflow=hidden;whiteSpace=wrap;html=1;" vertex="1" parent="4WcuhHbc12WLv7kI3l_H-471">
          <mxGeometry width="30" height="30" as="geometry">
            <mxRectangle width="30" height="30" as="alternateBounds" />
          </mxGeometry>
        </mxCell>
        <mxCell id="4WcuhHbc12WLv7kI3l_H-473" value="is_read(bool)" style="shape=partialRectangle;connectable=0;fillColor=none;top=0;left=0;bottom=0;right=0;align=left;spacingLeft=6;overflow=hidden;whiteSpace=wrap;html=1;" vertex="1" parent="4WcuhHbc12WLv7kI3l_H-471">
          <mxGeometry x="30" width="150" height="30" as="geometry">
            <mxRectangle width="150" height="30" as="alternateBounds" />
          </mxGeometry>
        </mxCell>
        <mxCell id="4WcuhHbc12WLv7kI3l_H-474" value="room" style="shape=table;startSize=30;container=1;collapsible=1;childLayout=tableLayout;fixedRows=1;rowLines=0;fontStyle=1;align=center;resizeLast=1;html=1;fillColor=#f8cecc;shadow=0;sketch=1;curveFitting=1;jiggle=2;rounded=1;strokeColor=#b85450;" vertex="1" parent="1">
          <mxGeometry x="2590" y="509" width="180" height="81" as="geometry">
            <mxRectangle x="1241" y="130" width="70" height="30" as="alternateBounds" />
          </mxGeometry>
        </mxCell>
        <mxCell id="4WcuhHbc12WLv7kI3l_H-475" value="" style="shape=tableRow;horizontal=0;startSize=0;swimlaneHead=0;swimlaneBody=0;fillColor=none;collapsible=0;dropTarget=0;points=[[0,0.5],[1,0.5]];portConstraint=eastwest;top=0;left=0;right=0;bottom=1;" vertex="1" parent="4WcuhHbc12WLv7kI3l_H-474">
          <mxGeometry y="30" width="180" height="51" as="geometry" />
        </mxCell>
        <mxCell id="4WcuhHbc12WLv7kI3l_H-476" value="PK" style="shape=partialRectangle;connectable=0;fillColor=none;top=0;left=0;bottom=0;right=0;fontStyle=1;overflow=hidden;whiteSpace=wrap;html=1;" vertex="1" parent="4WcuhHbc12WLv7kI3l_H-475">
          <mxGeometry width="30" height="51" as="geometry">
            <mxRectangle width="30" height="51" as="alternateBounds" />
          </mxGeometry>
        </mxCell>
        <mxCell id="4WcuhHbc12WLv7kI3l_H-477" value="id" style="shape=partialRectangle;connectable=0;fillColor=none;top=0;left=0;bottom=0;right=0;align=left;spacingLeft=6;fontStyle=5;overflow=hidden;whiteSpace=wrap;html=1;" vertex="1" parent="4WcuhHbc12WLv7kI3l_H-475">
          <mxGeometry x="30" width="150" height="51" as="geometry">
            <mxRectangle width="150" height="51" as="alternateBounds" />
          </mxGeometry>
        </mxCell>
        <mxCell id="4WcuhHbc12WLv7kI3l_H-484" value="room_participation" style="shape=table;startSize=30;container=1;collapsible=1;childLayout=tableLayout;fixedRows=1;rowLines=0;fontStyle=1;align=center;resizeLast=1;html=1;fillColor=#f8cecc;shadow=0;sketch=1;curveFitting=1;jiggle=2;rounded=1;strokeColor=#b85450;" vertex="1" parent="1">
          <mxGeometry x="2810" y="700" width="180" height="90.00000000000045" as="geometry">
            <mxRectangle x="1241" y="130" width="70" height="30" as="alternateBounds" />
          </mxGeometry>
        </mxCell>
        <mxCell id="4WcuhHbc12WLv7kI3l_H-485" value="" style="shape=tableRow;horizontal=0;startSize=0;swimlaneHead=0;swimlaneBody=0;fillColor=none;collapsible=0;dropTarget=0;points=[[0,0.5],[1,0.5]];portConstraint=eastwest;top=0;left=0;right=0;bottom=0;" vertex="1" parent="4WcuhHbc12WLv7kI3l_H-484">
          <mxGeometry y="30" width="180" height="30" as="geometry" />
        </mxCell>
        <mxCell id="4WcuhHbc12WLv7kI3l_H-486" value="&lt;b&gt;FK&lt;/b&gt;" style="shape=partialRectangle;connectable=0;fillColor=none;top=0;left=0;bottom=0;right=0;editable=1;overflow=hidden;whiteSpace=wrap;html=1;" vertex="1" parent="4WcuhHbc12WLv7kI3l_H-485">
          <mxGeometry width="30" height="30" as="geometry">
            <mxRectangle width="30" height="30" as="alternateBounds" />
          </mxGeometry>
        </mxCell>
        <mxCell id="4WcuhHbc12WLv7kI3l_H-487" value="user_id" style="shape=partialRectangle;connectable=0;fillColor=none;top=0;left=0;bottom=0;right=0;align=left;spacingLeft=6;overflow=hidden;whiteSpace=wrap;html=1;" vertex="1" parent="4WcuhHbc12WLv7kI3l_H-485">
          <mxGeometry x="30" width="150" height="30" as="geometry">
            <mxRectangle width="150" height="30" as="alternateBounds" />
          </mxGeometry>
        </mxCell>
        <mxCell id="4WcuhHbc12WLv7kI3l_H-488" value="" style="shape=tableRow;horizontal=0;startSize=0;swimlaneHead=0;swimlaneBody=0;fillColor=none;collapsible=0;dropTarget=0;points=[[0,0.5],[1,0.5]];portConstraint=eastwest;top=0;left=0;right=0;bottom=0;" vertex="1" parent="4WcuhHbc12WLv7kI3l_H-484">
          <mxGeometry y="60" width="180" height="30" as="geometry" />
        </mxCell>
        <mxCell id="4WcuhHbc12WLv7kI3l_H-489" value="&lt;b&gt;FK&lt;/b&gt;" style="shape=partialRectangle;connectable=0;fillColor=none;top=0;left=0;bottom=0;right=0;editable=1;overflow=hidden;whiteSpace=wrap;html=1;" vertex="1" parent="4WcuhHbc12WLv7kI3l_H-488">
          <mxGeometry width="30" height="30" as="geometry">
            <mxRectangle width="30" height="30" as="alternateBounds" />
          </mxGeometry>
        </mxCell>
        <mxCell id="4WcuhHbc12WLv7kI3l_H-490" value="room_id" style="shape=partialRectangle;connectable=0;fillColor=none;top=0;left=0;bottom=0;right=0;align=left;spacingLeft=6;overflow=hidden;whiteSpace=wrap;html=1;" vertex="1" parent="4WcuhHbc12WLv7kI3l_H-488">
          <mxGeometry x="30" width="150" height="30" as="geometry">
            <mxRectangle width="150" height="30" as="alternateBounds" />
          </mxGeometry>
        </mxCell>
        <mxCell id="4WcuhHbc12WLv7kI3l_H-492" style="edgeStyle=orthogonalEdgeStyle;rounded=1;orthogonalLoop=1;jettySize=auto;html=1;exitX=1;exitY=0.5;exitDx=0;exitDy=0;entryX=-0.011;entryY=0.324;entryDx=0;entryDy=0;entryPerimeter=0;fillColor=#f8cecc;strokeColor=#b85450;endArrow=none;endFill=0;" edge="1" parent="1" source="4WcuhHbc12WLv7kI3l_H-485" target="4WcuhHbc12WLv7kI3l_H-333">
          <mxGeometry relative="1" as="geometry">
            <Array as="points">
              <mxPoint x="3250" y="745" />
              <mxPoint x="3250" y="526" />
            </Array>
          </mxGeometry>
        </mxCell>
        <mxCell id="4WcuhHbc12WLv7kI3l_H-493" style="edgeStyle=orthogonalEdgeStyle;rounded=1;orthogonalLoop=1;jettySize=auto;html=1;exitX=1;exitY=0.5;exitDx=0;exitDy=0;entryX=0.002;entryY=0.223;entryDx=0;entryDy=0;entryPerimeter=0;fillColor=#f8cecc;strokeColor=#b85450;endArrow=none;endFill=0;" edge="1" parent="1" source="4WcuhHbc12WLv7kI3l_H-456" target="4WcuhHbc12WLv7kI3l_H-333">
          <mxGeometry relative="1" as="geometry" />
        </mxCell>
        <mxCell id="4WcuhHbc12WLv7kI3l_H-494" style="edgeStyle=orthogonalEdgeStyle;rounded=1;orthogonalLoop=1;jettySize=auto;html=1;exitX=1.002;exitY=0.242;exitDx=0;exitDy=0;entryX=0;entryY=0.575;entryDx=0;entryDy=0;entryPerimeter=0;exitPerimeter=0;fillColor=#f8cecc;strokeColor=#b85450;endArrow=none;endFill=0;" edge="1" parent="1" source="4WcuhHbc12WLv7kI3l_H-475" target="4WcuhHbc12WLv7kI3l_H-459">
          <mxGeometry relative="1" as="geometry" />
        </mxCell>
        <mxCell id="4WcuhHbc12WLv7kI3l_H-495" style="edgeStyle=orthogonalEdgeStyle;rounded=1;orthogonalLoop=1;jettySize=auto;html=1;exitX=1;exitY=0.5;exitDx=0;exitDy=0;entryX=0.007;entryY=0.741;entryDx=0;entryDy=0;entryPerimeter=0;fillColor=#f8cecc;strokeColor=#b85450;endArrow=none;endFill=0;" edge="1" parent="1" source="4WcuhHbc12WLv7kI3l_H-475" target="4WcuhHbc12WLv7kI3l_H-488">
          <mxGeometry relative="1" as="geometry" />
        </mxCell>
        <mxCell id="4WcuhHbc12WLv7kI3l_H-496" value="swipe_relationship" style="shape=table;startSize=30;container=1;collapsible=1;childLayout=tableLayout;fixedRows=1;rowLines=0;fontStyle=1;align=center;resizeLast=1;html=1;fillColor=#ffe6cc;shadow=0;sketch=1;curveFitting=1;jiggle=2;rounded=1;strokeColor=#d79b00;" vertex="1" parent="1">
          <mxGeometry x="3370" y="900" width="180" height="120" as="geometry">
            <mxRectangle x="1241" y="130" width="70" height="30" as="alternateBounds" />
          </mxGeometry>
        </mxCell>
        <mxCell id="4WcuhHbc12WLv7kI3l_H-497" value="" style="shape=tableRow;horizontal=0;startSize=0;swimlaneHead=0;swimlaneBody=0;fillColor=none;collapsible=0;dropTarget=0;points=[[0,0.5],[1,0.5]];portConstraint=eastwest;top=0;left=0;right=0;bottom=0;" vertex="1" parent="4WcuhHbc12WLv7kI3l_H-496">
          <mxGeometry y="30" width="180" height="30" as="geometry" />
        </mxCell>
        <mxCell id="4WcuhHbc12WLv7kI3l_H-498" value="&lt;b&gt;FK&lt;/b&gt;" style="shape=partialRectangle;connectable=0;fillColor=none;top=0;left=0;bottom=0;right=0;editable=1;overflow=hidden;whiteSpace=wrap;html=1;" vertex="1" parent="4WcuhHbc12WLv7kI3l_H-497">
          <mxGeometry width="30" height="30" as="geometry">
            <mxRectangle width="30" height="30" as="alternateBounds" />
          </mxGeometry>
        </mxCell>
        <mxCell id="4WcuhHbc12WLv7kI3l_H-499" value="viewer_user_id" style="shape=partialRectangle;connectable=0;fillColor=none;top=0;left=0;bottom=0;right=0;align=left;spacingLeft=6;overflow=hidden;whiteSpace=wrap;html=1;" vertex="1" parent="4WcuhHbc12WLv7kI3l_H-497">
          <mxGeometry x="30" width="150" height="30" as="geometry">
            <mxRectangle width="150" height="30" as="alternateBounds" />
          </mxGeometry>
        </mxCell>
        <mxCell id="4WcuhHbc12WLv7kI3l_H-500" value="" style="shape=tableRow;horizontal=0;startSize=0;swimlaneHead=0;swimlaneBody=0;fillColor=none;collapsible=0;dropTarget=0;points=[[0,0.5],[1,0.5]];portConstraint=eastwest;top=0;left=0;right=0;bottom=0;" vertex="1" parent="4WcuhHbc12WLv7kI3l_H-496">
          <mxGeometry y="60" width="180" height="30" as="geometry" />
        </mxCell>
        <mxCell id="4WcuhHbc12WLv7kI3l_H-501" value="&lt;b&gt;FK&lt;/b&gt;" style="shape=partialRectangle;connectable=0;fillColor=none;top=0;left=0;bottom=0;right=0;editable=1;overflow=hidden;whiteSpace=wrap;html=1;" vertex="1" parent="4WcuhHbc12WLv7kI3l_H-500">
          <mxGeometry width="30" height="30" as="geometry">
            <mxRectangle width="30" height="30" as="alternateBounds" />
          </mxGeometry>
        </mxCell>
        <mxCell id="4WcuhHbc12WLv7kI3l_H-502" value="shown_user_id" style="shape=partialRectangle;connectable=0;fillColor=none;top=0;left=0;bottom=0;right=0;align=left;spacingLeft=6;overflow=hidden;whiteSpace=wrap;html=1;" vertex="1" parent="4WcuhHbc12WLv7kI3l_H-500">
          <mxGeometry x="30" width="150" height="30" as="geometry">
            <mxRectangle width="150" height="30" as="alternateBounds" />
          </mxGeometry>
        </mxCell>
        <mxCell id="4WcuhHbc12WLv7kI3l_H-503" value="" style="shape=tableRow;horizontal=0;startSize=0;swimlaneHead=0;swimlaneBody=0;fillColor=none;collapsible=0;dropTarget=0;points=[[0,0.5],[1,0.5]];portConstraint=eastwest;top=0;left=0;right=0;bottom=0;" vertex="1" parent="4WcuhHbc12WLv7kI3l_H-496">
          <mxGeometry y="90" width="180" height="30" as="geometry" />
        </mxCell>
        <mxCell id="4WcuhHbc12WLv7kI3l_H-504" value="" style="shape=partialRectangle;connectable=0;fillColor=none;top=0;left=0;bottom=0;right=0;editable=1;overflow=hidden;whiteSpace=wrap;html=1;" vertex="1" parent="4WcuhHbc12WLv7kI3l_H-503">
          <mxGeometry width="30" height="30" as="geometry">
            <mxRectangle width="30" height="30" as="alternateBounds" />
          </mxGeometry>
        </mxCell>
        <mxCell id="4WcuhHbc12WLv7kI3l_H-505" value="mark(int)" style="shape=partialRectangle;connectable=0;fillColor=none;top=0;left=0;bottom=0;right=0;align=left;spacingLeft=6;overflow=hidden;whiteSpace=wrap;html=1;" vertex="1" parent="4WcuhHbc12WLv7kI3l_H-503">
          <mxGeometry x="30" width="150" height="30" as="geometry">
            <mxRectangle width="150" height="30" as="alternateBounds" />
          </mxGeometry>
        </mxCell>
        <mxCell id="4WcuhHbc12WLv7kI3l_H-506" style="edgeStyle=orthogonalEdgeStyle;rounded=1;orthogonalLoop=1;jettySize=auto;html=1;entryX=-0.009;entryY=0.703;entryDx=0;entryDy=0;endArrow=none;endFill=0;fillColor=#fff2cc;strokeColor=#d6b656;entryPerimeter=0;startArrow=none;startFill=0;" edge="1" parent="1" target="4WcuhHbc12WLv7kI3l_H-497">
          <mxGeometry relative="1" as="geometry">
            <mxPoint x="3368" y="560" as="sourcePoint" />
            <mxPoint x="3503" y="1202" as="targetPoint" />
            <Array as="points">
              <mxPoint x="3300" y="560" />
              <mxPoint x="3300" y="950" />
              <mxPoint x="3368" y="950" />
            </Array>
          </mxGeometry>
        </mxCell>
        <mxCell id="4WcuhHbc12WLv7kI3l_H-507" style="edgeStyle=orthogonalEdgeStyle;rounded=1;orthogonalLoop=1;jettySize=auto;html=1;entryX=-0.017;entryY=0.347;entryDx=0;entryDy=0;endArrow=none;endFill=0;fillColor=#fff2cc;strokeColor=#d6b656;entryPerimeter=0;startArrow=none;startFill=0;" edge="1" parent="1" target="4WcuhHbc12WLv7kI3l_H-500">
          <mxGeometry relative="1" as="geometry">
            <mxPoint x="3370" y="560" as="sourcePoint" />
            <mxPoint x="3348" y="1071" as="targetPoint" />
            <Array as="points">
              <mxPoint x="3300" y="560" />
              <mxPoint x="3300" y="970" />
            </Array>
          </mxGeometry>
        </mxCell>
        <mxCell id="4WcuhHbc12WLv7kI3l_H-514" value="user_swipes_info" style="shape=table;startSize=30;container=1;collapsible=1;childLayout=tableLayout;fixedRows=1;rowLines=0;fontStyle=1;align=center;resizeLast=1;html=1;fillColor=#ffe6cc;shadow=0;sketch=1;curveFitting=1;jiggle=2;rounded=1;strokeColor=#d79b00;" vertex="1" parent="1">
          <mxGeometry x="3370" y="1070" width="180" height="170" as="geometry">
            <mxRectangle x="1241" y="130" width="70" height="30" as="alternateBounds" />
          </mxGeometry>
        </mxCell>
        <mxCell id="4WcuhHbc12WLv7kI3l_H-515" value="" style="shape=tableRow;horizontal=0;startSize=0;swimlaneHead=0;swimlaneBody=0;fillColor=none;collapsible=0;dropTarget=0;points=[[0,0.5],[1,0.5]];portConstraint=eastwest;top=0;left=0;right=0;bottom=1;" vertex="1" parent="4WcuhHbc12WLv7kI3l_H-514">
          <mxGeometry y="30" width="180" height="80" as="geometry" />
        </mxCell>
        <mxCell id="4WcuhHbc12WLv7kI3l_H-516" value="FK" style="shape=partialRectangle;connectable=0;fillColor=none;top=0;left=0;bottom=0;right=0;fontStyle=1;overflow=hidden;whiteSpace=wrap;html=1;" vertex="1" parent="4WcuhHbc12WLv7kI3l_H-515">
          <mxGeometry width="30" height="80" as="geometry">
            <mxRectangle width="30" height="80" as="alternateBounds" />
          </mxGeometry>
        </mxCell>
        <mxCell id="4WcuhHbc12WLv7kI3l_H-517" value="id" style="shape=partialRectangle;connectable=0;fillColor=none;top=0;left=0;bottom=0;right=0;align=left;spacingLeft=6;fontStyle=5;overflow=hidden;whiteSpace=wrap;html=1;" vertex="1" parent="4WcuhHbc12WLv7kI3l_H-515">
          <mxGeometry x="30" width="150" height="80" as="geometry">
            <mxRectangle width="150" height="80" as="alternateBounds" />
          </mxGeometry>
        </mxCell>
        <mxCell id="4WcuhHbc12WLv7kI3l_H-545" value="" style="shape=tableRow;horizontal=0;startSize=0;swimlaneHead=0;swimlaneBody=0;fillColor=none;collapsible=0;dropTarget=0;points=[[0,0.5],[1,0.5]];portConstraint=eastwest;top=0;left=0;right=0;bottom=0;" vertex="1" parent="4WcuhHbc12WLv7kI3l_H-514">
          <mxGeometry y="110" width="180" height="30" as="geometry" />
        </mxCell>
        <mxCell id="4WcuhHbc12WLv7kI3l_H-546" value="" style="shape=partialRectangle;connectable=0;fillColor=none;top=0;left=0;bottom=0;right=0;editable=1;overflow=hidden;whiteSpace=wrap;html=1;" vertex="1" parent="4WcuhHbc12WLv7kI3l_H-545">
          <mxGeometry width="30" height="30" as="geometry">
            <mxRectangle width="30" height="30" as="alternateBounds" />
          </mxGeometry>
        </mxCell>
        <mxCell id="4WcuhHbc12WLv7kI3l_H-547" value="available_likes(int)" style="shape=partialRectangle;connectable=0;fillColor=none;top=0;left=0;bottom=0;right=0;align=left;spacingLeft=6;overflow=hidden;whiteSpace=wrap;html=1;" vertex="1" parent="4WcuhHbc12WLv7kI3l_H-545">
          <mxGeometry x="30" width="150" height="30" as="geometry">
            <mxRectangle width="150" height="30" as="alternateBounds" />
          </mxGeometry>
        </mxCell>
        <mxCell id="4WcuhHbc12WLv7kI3l_H-548" value="" style="shape=tableRow;horizontal=0;startSize=0;swimlaneHead=0;swimlaneBody=0;fillColor=none;collapsible=0;dropTarget=0;points=[[0,0.5],[1,0.5]];portConstraint=eastwest;top=0;left=0;right=0;bottom=0;" vertex="1" parent="4WcuhHbc12WLv7kI3l_H-514">
          <mxGeometry y="140" width="180" height="30" as="geometry" />
        </mxCell>
        <mxCell id="4WcuhHbc12WLv7kI3l_H-549" value="" style="shape=partialRectangle;connectable=0;fillColor=none;top=0;left=0;bottom=0;right=0;editable=1;overflow=hidden;whiteSpace=wrap;html=1;" vertex="1" parent="4WcuhHbc12WLv7kI3l_H-548">
          <mxGeometry width="30" height="30" as="geometry">
            <mxRectangle width="30" height="30" as="alternateBounds" />
          </mxGeometry>
        </mxCell>
        <mxCell id="4WcuhHbc12WLv7kI3l_H-550" value="available_super_likes(int)" style="shape=partialRectangle;connectable=0;fillColor=none;top=0;left=0;bottom=0;right=0;align=left;spacingLeft=6;overflow=hidden;whiteSpace=wrap;html=1;" vertex="1" parent="4WcuhHbc12WLv7kI3l_H-548">
          <mxGeometry x="30" width="150" height="30" as="geometry">
            <mxRectangle width="150" height="30" as="alternateBounds" />
          </mxGeometry>
        </mxCell>
        <mxCell id="4WcuhHbc12WLv7kI3l_H-551" value="user_events_info" style="shape=table;startSize=30;container=1;collapsible=1;childLayout=tableLayout;fixedRows=1;rowLines=0;fontStyle=1;align=center;resizeLast=1;html=1;fillColor=#ffe6cc;shadow=0;sketch=1;curveFitting=1;jiggle=2;rounded=1;strokeColor=#d79b00;" vertex="1" parent="1">
          <mxGeometry x="3370" y="1270" width="180" height="200" as="geometry">
            <mxRectangle x="1241" y="130" width="70" height="30" as="alternateBounds" />
          </mxGeometry>
        </mxCell>
        <mxCell id="4WcuhHbc12WLv7kI3l_H-552" value="" style="shape=tableRow;horizontal=0;startSize=0;swimlaneHead=0;swimlaneBody=0;fillColor=none;collapsible=0;dropTarget=0;points=[[0,0.5],[1,0.5]];portConstraint=eastwest;top=0;left=0;right=0;bottom=1;" vertex="1" parent="4WcuhHbc12WLv7kI3l_H-551">
          <mxGeometry y="30" width="180" height="80" as="geometry" />
        </mxCell>
        <mxCell id="4WcuhHbc12WLv7kI3l_H-553" value="FK" style="shape=partialRectangle;connectable=0;fillColor=none;top=0;left=0;bottom=0;right=0;fontStyle=1;overflow=hidden;whiteSpace=wrap;html=1;" vertex="1" parent="4WcuhHbc12WLv7kI3l_H-552">
          <mxGeometry width="30" height="80" as="geometry">
            <mxRectangle width="30" height="80" as="alternateBounds" />
          </mxGeometry>
        </mxCell>
        <mxCell id="4WcuhHbc12WLv7kI3l_H-554" value="id" style="shape=partialRectangle;connectable=0;fillColor=none;top=0;left=0;bottom=0;right=0;align=left;spacingLeft=6;fontStyle=5;overflow=hidden;whiteSpace=wrap;html=1;" vertex="1" parent="4WcuhHbc12WLv7kI3l_H-552">
          <mxGeometry x="30" width="150" height="80" as="geometry">
            <mxRectangle width="150" height="80" as="alternateBounds" />
          </mxGeometry>
        </mxCell>
        <mxCell id="4WcuhHbc12WLv7kI3l_H-588" value="" style="shape=tableRow;horizontal=0;startSize=0;swimlaneHead=0;swimlaneBody=0;fillColor=none;collapsible=0;dropTarget=0;points=[[0,0.5],[1,0.5]];portConstraint=eastwest;top=0;left=0;right=0;bottom=0;" vertex="1" parent="4WcuhHbc12WLv7kI3l_H-551">
          <mxGeometry y="110" width="180" height="30" as="geometry" />
        </mxCell>
        <mxCell id="4WcuhHbc12WLv7kI3l_H-589" value="" style="shape=partialRectangle;connectable=0;fillColor=none;top=0;left=0;bottom=0;right=0;editable=1;overflow=hidden;whiteSpace=wrap;html=1;" vertex="1" parent="4WcuhHbc12WLv7kI3l_H-588">
          <mxGeometry width="30" height="30" as="geometry">
            <mxRectangle width="30" height="30" as="alternateBounds" />
          </mxGeometry>
        </mxCell>
        <mxCell id="4WcuhHbc12WLv7kI3l_H-590" value="organizer_raiting(float)" style="shape=partialRectangle;connectable=0;fillColor=none;top=0;left=0;bottom=0;right=0;align=left;spacingLeft=6;overflow=hidden;whiteSpace=wrap;html=1;" vertex="1" parent="4WcuhHbc12WLv7kI3l_H-588">
          <mxGeometry x="30" width="150" height="30" as="geometry">
            <mxRectangle width="150" height="30" as="alternateBounds" />
          </mxGeometry>
        </mxCell>
        <mxCell id="4WcuhHbc12WLv7kI3l_H-591" value="" style="shape=tableRow;horizontal=0;startSize=0;swimlaneHead=0;swimlaneBody=0;fillColor=none;collapsible=0;dropTarget=0;points=[[0,0.5],[1,0.5]];portConstraint=eastwest;top=0;left=0;right=0;bottom=0;" vertex="1" parent="4WcuhHbc12WLv7kI3l_H-551">
          <mxGeometry y="140" width="180" height="30" as="geometry" />
        </mxCell>
        <mxCell id="4WcuhHbc12WLv7kI3l_H-592" value="" style="shape=partialRectangle;connectable=0;fillColor=none;top=0;left=0;bottom=0;right=0;editable=1;overflow=hidden;whiteSpace=wrap;html=1;" vertex="1" parent="4WcuhHbc12WLv7kI3l_H-591">
          <mxGeometry width="30" height="30" as="geometry">
            <mxRectangle width="30" height="30" as="alternateBounds" />
          </mxGeometry>
        </mxCell>
        <mxCell id="4WcuhHbc12WLv7kI3l_H-593" value="events_organized(uint)" style="shape=partialRectangle;connectable=0;fillColor=none;top=0;left=0;bottom=0;right=0;align=left;spacingLeft=6;overflow=hidden;whiteSpace=wrap;html=1;" vertex="1" parent="4WcuhHbc12WLv7kI3l_H-591">
          <mxGeometry x="30" width="150" height="30" as="geometry">
            <mxRectangle width="150" height="30" as="alternateBounds" />
          </mxGeometry>
        </mxCell>
        <mxCell id="4WcuhHbc12WLv7kI3l_H-594" value="" style="shape=tableRow;horizontal=0;startSize=0;swimlaneHead=0;swimlaneBody=0;fillColor=none;collapsible=0;dropTarget=0;points=[[0,0.5],[1,0.5]];portConstraint=eastwest;top=0;left=0;right=0;bottom=0;" vertex="1" parent="4WcuhHbc12WLv7kI3l_H-551">
          <mxGeometry y="170" width="180" height="30" as="geometry" />
        </mxCell>
        <mxCell id="4WcuhHbc12WLv7kI3l_H-595" value="" style="shape=partialRectangle;connectable=0;fillColor=none;top=0;left=0;bottom=0;right=0;editable=1;overflow=hidden;whiteSpace=wrap;html=1;" vertex="1" parent="4WcuhHbc12WLv7kI3l_H-594">
          <mxGeometry width="30" height="30" as="geometry">
            <mxRectangle width="30" height="30" as="alternateBounds" />
          </mxGeometry>
        </mxCell>
        <mxCell id="4WcuhHbc12WLv7kI3l_H-596" value="events_visited(uint)" style="shape=partialRectangle;connectable=0;fillColor=none;top=0;left=0;bottom=0;right=0;align=left;spacingLeft=6;overflow=hidden;whiteSpace=wrap;html=1;" vertex="1" parent="4WcuhHbc12WLv7kI3l_H-594">
          <mxGeometry x="30" width="150" height="30" as="geometry">
            <mxRectangle width="150" height="30" as="alternateBounds" />
          </mxGeometry>
        </mxCell>
        <mxCell id="4WcuhHbc12WLv7kI3l_H-610" style="edgeStyle=orthogonalEdgeStyle;rounded=1;orthogonalLoop=1;jettySize=auto;html=1;entryX=-0.011;entryY=0.413;entryDx=0;entryDy=0;endArrow=none;endFill=0;fillColor=#fff2cc;strokeColor=#d6b656;entryPerimeter=0;startArrow=none;startFill=0;exitX=-0.01;exitY=0.63;exitDx=0;exitDy=0;exitPerimeter=0;" edge="1" parent="1" source="4WcuhHbc12WLv7kI3l_H-333" target="4WcuhHbc12WLv7kI3l_H-515">
          <mxGeometry relative="1" as="geometry">
            <mxPoint x="3380" y="570" as="sourcePoint" />
            <mxPoint x="3377" y="980" as="targetPoint" />
            <Array as="points">
              <mxPoint x="3290" y="550" />
              <mxPoint x="3290" y="1133" />
            </Array>
          </mxGeometry>
        </mxCell>
        <mxCell id="4WcuhHbc12WLv7kI3l_H-611" style="edgeStyle=orthogonalEdgeStyle;rounded=1;orthogonalLoop=1;jettySize=auto;html=1;entryX=0;entryY=0.384;entryDx=0;entryDy=0;endArrow=none;endFill=0;fillColor=#fff2cc;strokeColor=#d6b656;entryPerimeter=0;startArrow=none;startFill=0;exitX=-0.013;exitY=0.551;exitDx=0;exitDy=0;exitPerimeter=0;" edge="1" parent="1" source="4WcuhHbc12WLv7kI3l_H-333" target="4WcuhHbc12WLv7kI3l_H-552">
          <mxGeometry relative="1" as="geometry">
            <mxPoint x="3378" y="560" as="sourcePoint" />
            <mxPoint x="3378" y="1143" as="targetPoint" />
            <Array as="points">
              <mxPoint x="3280" y="544" />
              <mxPoint x="3280" y="1330" />
              <mxPoint x="3370" y="1330" />
            </Array>
          </mxGeometry>
        </mxCell>
      </root>
    </mxGraphModel>
  </diagram>
</mxfile>
